<svg width="22" height="22" viewBox="0 0 22 22" fill="none" xmlns="http://www.w3.org/2000/svg">
<path d="M15.2308 10.2308C15.2308 11.0675 14.9826 11.8855 14.5178 12.5813C14.0529 13.277 13.3921 13.8193 12.619 14.1395C11.846 14.4597 10.9953 14.5435 10.1746 14.3802C9.35393 14.217 8.60008 13.8141 8.0084 13.2224C7.41671 12.6307 7.01377 11.8768 6.85053 11.0561C6.68728 10.2355 6.77107 9.38479 7.09128 8.61172C7.4115 7.83865 7.95377 7.17789 8.64951 6.71301C9.34526 6.24813 10.1632 6 11 6C12.1221 6 13.1982 6.44574 13.9916 7.23916C14.785 8.03259 15.2308 9.1087 15.2308 10.2308ZM21 11C21 12.9778 20.4135 14.9112 19.3147 16.5557C18.2159 18.2002 16.6541 19.4819 14.8268 20.2388C12.9996 20.9957 10.9889 21.1937 9.0491 20.8078C7.10929 20.422 5.32746 19.4696 3.92894 18.0711C2.53041 16.6725 1.578 14.8907 1.19215 12.9509C0.8063 11.0111 1.00433 9.00042 1.76121 7.17316C2.51809 5.3459 3.79981 3.78412 5.4443 2.6853C7.08879 1.58649 9.02219 1 11 1C13.6506 1.00508 16.1912 2.06028 18.0655 3.93455C19.9397 5.80881 20.9949 8.34939 21 11ZM19.4615 11C19.462 9.62955 19.1297 8.2795 18.493 7.06592C17.8563 5.85234 16.9344 4.81156 15.8066 4.03308C14.6787 3.2546 13.3786 2.76171 12.0181 2.59681C10.6577 2.43191 9.27748 2.59993 7.99629 3.08641C6.7151 3.5729 5.57125 4.3633 4.66309 5.38963C3.75493 6.41597 3.10965 7.64753 2.78274 8.97841C2.45583 10.3093 2.45706 11.6997 2.78635 13.03C3.11563 14.3603 3.7631 15.5907 4.67308 16.6154C5.29575 15.7222 6.09815 14.9689 7.02885 14.4038C8.09745 15.4276 9.52014 15.9991 11 15.9991C12.4799 15.9991 13.9026 15.4276 14.9712 14.4038C15.9019 14.9689 16.7043 15.7222 17.3269 16.6154C18.7045 15.0696 19.4644 13.0705 19.4615 11Z" fill="#DDAC5F"/>
</svg>
