<svg width="20" height="20" viewBox="0 0 18 18" fill="none" xmlns="http://www.w3.org/2000/svg">
<path d="M8.15016 15.2002L8.14944 15.1996C6.03279 13.2802 4.31617 11.7205 3.12286 10.2606C1.93505 8.8074 1.31812 7.51425 1.31812 6.13635C1.31812 3.88491 3.07366 2.13635 5.31812 2.13635C6.5906 2.13635 7.82018 2.73131 8.62052 3.66381L8.99993 4.10589L9.37935 3.66381C10.1797 2.73131 11.4093 2.13635 12.6818 2.13635C14.9262 2.13635 16.6818 3.88491 16.6818 6.13635C16.6818 7.51425 16.0648 8.8074 14.877 10.2606C13.6837 11.7205 11.9671 13.2802 9.85042 15.1996L9.84971 15.2002L8.99993 15.9738L8.15016 15.2002Z" stroke="#662916"/>
</svg>
