<svg width="21" height="21" viewBox="0 0 21 21" fill="none" xmlns="http://www.w3.org/2000/svg">
<path d="M8.89855 16.625C9.02927 16.6254 9.15842 16.5966 9.27653 16.5406C9.39464 16.4845 9.49869 16.4028 9.58105 16.3012L13.8073 11.0512C13.936 10.8947 14.0063 10.6983 14.0063 10.4956C14.0063 10.293 13.936 10.0966 13.8073 9.94L9.43229 4.69C9.28377 4.51131 9.07035 4.39894 8.83898 4.3776C8.60761 4.35627 8.37723 4.42773 8.19854 4.57625C8.01986 4.72477 7.90748 4.93819 7.88615 5.16956C7.86482 5.40094 7.93627 5.63131 8.08479 5.81L11.996 10.5L8.21605 15.19C8.10905 15.3184 8.04108 15.4748 8.02019 15.6407C7.99929 15.8065 8.02634 15.9749 8.09814 16.1259C8.16994 16.2768 8.28348 16.4041 8.42533 16.4925C8.56717 16.581 8.73139 16.627 8.89855 16.625Z" fill="#AEB3BE"/>
</svg>
