<svg width="22" height="22" viewBox="0 0 22 22" fill="none" xmlns="http://www.w3.org/2000/svg">
<path d="M4.04835 9.02307L3.01227 17.8897L4.336 18.0303L5.37208 9.1624L4.04835 9.02307ZM4.99787 20H18.0035V18.7333H4.99787V20ZM19.9891 17.8897L18.953 9.02307L17.6293 9.1624L18.6653 18.0303L19.9891 17.8897ZM18.953 9.02307C18.8986 8.55839 18.666 8.1291 18.2996 7.81735C17.9333 7.5056 17.4576 7.33327 16.9661 7.33333L16.9674 8.6C17.1313 8.59999 17.2895 8.65749 17.4116 8.7615C17.5337 8.8655 17.6112 9.0087 17.6293 9.16367L18.953 9.02307ZM18.0035 20C18.2844 19.9999 18.5621 19.9434 18.8184 19.8342C19.0748 19.7251 19.3041 19.5658 19.4914 19.3666C19.6786 19.1675 19.8196 18.933 19.9051 18.6785C19.9907 18.424 20.0201 18.1553 19.9891 17.8897L18.6653 18.0303C18.6758 18.1189 18.6665 18.2074 18.6381 18.2924C18.6096 18.3773 18.5626 18.4556 18.5001 18.5221C18.4376 18.5886 18.3611 18.6417 18.2755 18.6782C18.1899 18.7146 18.0972 18.7334 18.0035 18.7333V20ZM3.01227 17.8897C2.98117 18.1554 3.00935 18.4243 3.09495 18.6788C3.18056 18.9334 3.32167 19.1679 3.50907 19.3671C3.69646 19.5662 3.92593 19.7256 4.18247 19.8346C4.43902 19.9437 4.71687 20 4.99787 20V18.7333C4.90424 18.7333 4.81167 18.7146 4.72619 18.6782C4.64071 18.6419 4.56424 18.5888 4.50178 18.5225C4.43932 18.4562 4.39228 18.378 4.36371 18.2932C4.33514 18.2084 4.3257 18.1188 4.336 18.0303L3.01227 17.891V17.8897ZM8.17136 6.06667V5.43333H6.83964V6.06667H8.17136ZM14.83 5.43333V6.06667H16.1617V5.43333H14.83ZM11.5007 2.26667C12.3837 2.26667 13.2305 2.6003 13.8548 3.19416C14.4792 3.78803 14.83 4.59348 14.83 5.43333H16.1617C16.1617 4.25754 15.6706 3.1299 14.7965 2.29849C13.9224 1.46708 12.7368 1 11.5007 1V2.26667ZM8.17136 5.43333C8.17136 4.59348 8.52213 3.78803 9.14649 3.19416C9.77086 2.6003 10.6177 2.26667 11.5007 2.26667V1C10.2645 1 9.07893 1.46708 8.20482 2.29849C7.33071 3.1299 6.83964 4.25754 6.83964 5.43333H8.17136Z" fill="#DDAC5F"/>
<path d="M5.37208 9.1624L4.336 18.0303C4.3257 18.1188 4.33514 18.2084 4.36371 18.2932C4.39228 18.378 4.43932 18.4562 4.50178 18.5225C4.56424 18.5888 4.64071 18.6419 4.72619 18.6782C4.81167 18.7146 4.90424 18.7333 4.99787 18.7333H18.0035C18.0972 18.7334 18.1899 18.7146 18.2755 18.6782C18.3611 18.6417 18.4376 18.5886 18.5001 18.5221C18.5626 18.4556 18.6096 18.3773 18.6381 18.2924C18.6665 18.2074 18.6758 18.1189 18.6653 18.0303L17.6293 9.16367C17.6112 9.0087 17.5337 8.8655 17.4116 8.7615C17.2895 8.65749 17.1313 8.59999 16.9674 8.6L16.9661 7.33333H6.03528C5.54395 7.33358 5.06861 7.50605 4.70255 7.81777C4.33649 8.1295 4.10272 8.55861 4.04835 9.02307L5.37208 9.1624Z" fill="#DDAC5F"/>
</svg>
