<svg width="22" height="22" viewBox="0 0 22 22" fill="none" xmlns="http://www.w3.org/2000/svg">
<path d="M3.4375 9.12497C3.38777 9.12497 3.34008 9.10521 3.30492 9.07005C3.26975 9.03489 3.25 8.9872 3.25 8.93747V3.43884C3.25 3.38911 3.26975 3.34142 3.30492 3.30626C3.34008 3.2711 3.38777 3.25134 3.4375 3.25134H8.9375C8.98723 3.25134 9.03492 3.2711 9.07008 3.30626C9.10525 3.34142 9.125 3.38912 9.125 3.43884V8.93747C9.125 8.9872 9.10525 9.03489 9.07008 9.07005C9.03492 9.10521 8.98723 9.12497 8.9375 9.12497H3.4375ZM13.0625 9.12497C13.0128 9.12497 12.9651 9.10521 12.9299 9.07005C12.8948 9.03489 12.875 8.9872 12.875 8.93747V3.43884C12.875 3.38911 12.8948 3.34142 12.9299 3.30626C12.9651 3.2711 13.0128 3.25134 13.0625 3.25134H18.5611C18.6109 3.25134 18.6585 3.2711 18.6937 3.30626C18.7289 3.34142 18.7486 3.38912 18.7486 3.43884V8.93747C18.7486 8.98719 18.7289 9.03489 18.6937 9.07005C18.6585 9.10521 18.6109 9.12497 18.5611 9.12497H13.0625ZM3.4375 18.75C3.38777 18.75 3.34008 18.7302 3.30492 18.695C3.26975 18.6599 3.25 18.6122 3.25 18.5625V13.0625C3.25 13.0127 3.26975 12.965 3.30492 12.9299C3.34008 12.8947 3.38777 12.875 3.4375 12.875H8.9375C8.98723 12.875 9.03492 12.8947 9.07008 12.9299C9.10525 12.965 9.125 13.0127 9.125 13.0625V18.5625C9.125 18.6122 9.10525 18.6599 9.07008 18.695C9.03492 18.7302 8.98723 18.75 8.9375 18.75H3.4375ZM13.0625 18.75C13.0128 18.75 12.9651 18.7302 12.9299 18.695C12.8948 18.6599 12.875 18.6122 12.875 18.5625V13.0625C12.875 13.0127 12.8948 12.965 12.9299 12.9299C12.9651 12.8947 13.0128 12.875 13.0625 12.875H18.5611C18.6109 12.875 18.6585 12.8947 18.6937 12.9299C18.7289 12.965 18.7486 13.0127 18.7486 13.0625V18.5625C18.7486 18.6122 18.7289 18.6599 18.6937 18.695C18.6585 18.7302 18.6109 18.75 18.5611 18.75H13.0625Z" stroke="#662916"/>
</svg>
