<svg width="22" height="22" viewBox="0 0 22 22" fill="none" xmlns="http://www.w3.org/2000/svg">
<path d="M3.4375 9.62503C3.25516 9.62503 3.0803 9.5526 2.95136 9.42366C2.82243 9.29473 2.75 9.11986 2.75 8.93753V3.4389C2.75 3.25657 2.82243 3.0817 2.95136 2.95277C3.0803 2.82384 3.25516 2.7514 3.4375 2.7514H8.9375C9.11984 2.7514 9.2947 2.82384 9.42364 2.95277C9.55257 3.0817 9.625 3.25657 9.625 3.4389V8.93753C9.625 9.11986 9.55257 9.29473 9.42364 9.42366C9.2947 9.5526 9.11984 9.62503 8.9375 9.62503H3.4375ZM13.0625 9.62503C12.8802 9.62503 12.7053 9.5526 12.5764 9.42366C12.4474 9.29473 12.375 9.11986 12.375 8.93753V3.4389C12.375 3.25657 12.4474 3.0817 12.5764 2.95277C12.7053 2.82384 12.8802 2.7514 13.0625 2.7514H18.5611C18.7435 2.7514 18.9183 2.82384 19.0473 2.95277C19.1762 3.0817 19.2486 3.25657 19.2486 3.4389V8.93753C19.2486 9.11986 19.1762 9.29473 19.0473 9.42366C18.9183 9.5526 18.7435 9.62503 18.5611 9.62503H13.0625ZM3.4375 19.25C3.25516 19.25 3.0803 19.1776 2.95136 19.0487C2.82243 18.9197 2.75 18.7449 2.75 18.5625V13.0625C2.75 12.8802 2.82243 12.7053 2.95136 12.5764C3.0803 12.4475 3.25516 12.375 3.4375 12.375H8.9375C9.11984 12.375 9.2947 12.4475 9.42364 12.5764C9.55257 12.7053 9.625 12.8802 9.625 13.0625V18.5625C9.625 18.7449 9.55257 18.9197 9.42364 19.0487C9.2947 19.1776 9.11984 19.25 8.9375 19.25H3.4375ZM13.0625 19.25C12.8802 19.25 12.7053 19.1776 12.5764 19.0487C12.4474 18.9197 12.375 18.7449 12.375 18.5625V13.0625C12.375 12.8802 12.4474 12.7053 12.5764 12.5764C12.7053 12.4475 12.8802 12.375 13.0625 12.375H18.5611C18.7435 12.375 18.9183 12.4475 19.0473 12.5764C19.1762 12.7053 19.2486 12.8802 19.2486 13.0625V18.5625C19.2486 18.7449 19.1762 18.9197 19.0473 19.0487C18.9183 19.1776 18.7435 19.25 18.5611 19.25H13.0625Z" fill="#DDAC5F"/>
</svg>
