<svg width="20" height="20" viewBox="0 0 20 20" fill="none" xmlns="http://www.w3.org/2000/svg">
<path d="M3.15803 11.5837C3.15758 11.4488 3.18732 11.3156 3.24509 11.1938C3.30285 11.072 3.38717 10.9647 3.49184 10.8798L8.90486 6.52109C9.06629 6.38836 9.26877 6.3158 9.47774 6.3158C9.6867 6.3158 9.88919 6.38836 10.0506 6.52109L15.4636 11.0332C15.6479 11.1864 15.7637 11.4065 15.7857 11.6451C15.8077 11.8837 15.7341 12.1213 15.5809 12.3056C15.4278 12.4899 15.2077 12.6058 14.9692 12.6278C14.7306 12.6498 14.4931 12.5761 14.3089 12.4229L9.47323 8.38909L4.63759 12.2875C4.50517 12.3979 4.34391 12.468 4.17291 12.4895C4.0019 12.5111 3.8283 12.4832 3.67265 12.4091C3.517 12.3351 3.38582 12.218 3.29462 12.0717C3.20342 11.9254 3.15602 11.756 3.15803 11.5837Z" fill="#333333"/>
</svg>
