<svg width="35" height="35" viewBox="0 0 35 35" fill="none" xmlns="http://www.w3.org/2000/svg">
<path d="M24.5 25H26.8333C27.475 25 28 24.475 28 23.8333C28 23.1917 27.475 22.6667 26.8333 22.6667H24.5C23.8583 22.6667 23.3333 23.1917 23.3333 23.8333C23.3333 24.475 23.8583 25 24.5 25ZM7 12.1667C7 12.8083 7.525 13.3333 8.16667 13.3333H26.8333C27.475 13.3333 28 12.8083 28 12.1667C28 11.525 27.475 11 26.8333 11H8.16667C7.525 11 7 11.525 7 12.1667ZM15.1667 19.1667H26.8333C27.475 19.1667 28 18.6417 28 18C28 17.3583 27.475 16.8333 26.8333 16.8333H15.1667C14.525 16.8333 14 17.3583 14 18C14 18.6417 14.525 19.1667 15.1667 19.1667Z" fill="#333333"/>
</svg>
