<svg width="27" height="27" viewBox="0 0 27 27" fill="none" xmlns="http://www.w3.org/2000/svg">
<path d="M24.724 17.0859C24.8071 17.2303 24.8609 17.3895 24.8825 17.5547C24.904 17.7198 24.8929 17.8876 24.8496 18.0484C24.8063 18.2092 24.7317 18.3599 24.6302 18.4919C24.5287 18.6239 24.4021 18.7346 24.2578 18.8177C24.1135 18.9008 23.9542 18.9547 23.7891 18.9762C23.6239 18.9978 23.4562 18.9866 23.2954 18.9433C23.1346 18.9 22.9838 18.8255 22.8518 18.724C22.7198 18.6224 22.6091 18.4959 22.526 18.3516L20.7478 15.2402C19.7556 15.8644 18.6858 16.3559 17.5658 16.702L18.1238 20.0391C18.1786 20.3701 18.0998 20.7094 17.9046 20.9823C17.7094 21.2552 17.4138 21.4395 17.0828 21.4945C17.0131 21.5068 16.9425 21.5128 16.8718 21.5125C16.573 21.5122 16.2838 21.4061 16.0557 21.2131C15.8275 21.02 15.675 20.7525 15.6252 20.4578L15.082 17.2093C14.0285 17.3261 12.9652 17.3261 11.9116 17.2093L11.3738 20.4609C11.3239 20.756 11.1711 21.0238 10.9425 21.2169C10.7139 21.41 10.4242 21.5158 10.125 21.5156C10.0543 21.516 9.9837 21.51 9.91406 21.4977C9.75013 21.4701 9.59325 21.4105 9.45237 21.3222C9.31148 21.234 9.18937 21.1188 9.093 20.9834C8.99662 20.8479 8.92788 20.6948 8.89069 20.5328C8.8535 20.3707 8.84859 20.203 8.87625 20.0391L9.43418 16.6936C8.3142 16.3475 7.24443 15.856 6.25219 15.2318L4.47399 18.3516C4.39088 18.4959 4.28017 18.6224 4.14816 18.724C4.01616 18.8255 3.86545 18.9 3.70463 18.9433C3.54382 18.9866 3.37606 18.9978 3.21092 18.9762C3.04579 18.9547 2.88651 18.9008 2.74219 18.8177C2.59787 18.7346 2.47133 18.6239 2.3698 18.4919C2.26826 18.3599 2.19372 18.2092 2.15044 18.0484C2.10715 17.8876 2.09596 17.7198 2.11751 17.5547C2.13905 17.3895 2.19291 17.2303 2.27602 17.0859L4.21875 13.6951C3.5603 13.1005 2.94984 12.4548 2.39309 11.764C2.19654 11.5018 2.10931 11.1737 2.14975 10.8485C2.19019 10.5234 2.35515 10.2266 2.60993 10.0206C2.86471 9.81459 3.18946 9.71542 3.51586 9.74394C3.84226 9.77245 4.14489 9.92644 4.36008 10.1735C6.0518 12.2681 9.01125 14.7656 13.5 14.7656C17.9888 14.7656 20.9482 12.2681 22.6399 10.1735C22.8516 9.91489 23.1571 9.7505 23.4895 9.71624C23.822 9.68198 24.1545 9.78061 24.4145 9.99062C24.6745 10.2006 24.8409 10.505 24.8773 10.8372C24.9138 11.1694 24.8173 11.5026 24.609 11.764C24.0516 12.4548 23.4404 13.1006 22.7813 13.6951L24.724 17.0859Z" fill="black"/>
</svg>
