<svg width="28" height="28" viewBox="0 0 28 28" fill="none" xmlns="http://www.w3.org/2000/svg">
<rect width="28" height="28" rx="6" fill="#F9DEC1"/>
<path d="M19.8608 19.0011C19.9741 19.1155 20.0377 19.27 20.0377 19.4311C20.0377 19.5921 19.9741 19.7466 19.8608 19.861C19.7454 19.9725 19.5913 20.0349 19.4308 20.0349C19.2704 20.0349 19.1162 19.9725 19.0009 19.861L13.9998 14.8524L8.99871 19.861C8.88337 19.9725 8.7292 20.0349 8.56876 20.0349C8.40831 20.0349 8.25414 19.9725 8.1388 19.861C8.02548 19.7466 7.96191 19.5921 7.96191 19.4311C7.96191 19.27 8.02548 19.1155 8.1388 19.0011L13.1474 14L8.1388 8.99895C8.04257 8.8817 7.9934 8.73285 8.00084 8.58136C8.00828 8.42986 8.0718 8.28655 8.17906 8.17929C8.28631 8.07204 8.42962 8.00851 8.58112 8.00107C8.73262 7.99363 8.88147 8.04281 8.99871 8.13904L13.9998 13.1477L19.0009 8.13904C19.1181 8.04281 19.267 7.99363 19.4185 8.00107C19.57 8.00851 19.7133 8.07204 19.8205 8.17929C19.9278 8.28655 19.9913 8.42986 19.9987 8.58136C20.0062 8.73285 19.957 8.8817 19.8608 8.99895L14.8522 14L19.8608 19.0011Z" fill="#662916"/>
</svg>
