<svg width="14" height="14" viewBox="0 0 14 14" fill="none" xmlns="http://www.w3.org/2000/svg">
<g clip-path="url(#clip0_14_1165)">
<path d="M1.33333 13.8C0.966668 13.8 0.652668 13.6696 0.391334 13.4087C0.130001 13.1478 -0.000443313 12.8338 1.13186e-06 12.4667V3.13333C1.13186e-06 2.76667 0.130668 2.45267 0.392001 2.19134C0.653334 1.93 0.967112 1.79956 1.33333 1.8H7.28333L5.95 3.13333H1.33333V12.4667H10.6667V7.83333L12 6.5V12.4667C12 12.8333 11.8693 13.1473 11.608 13.4087C11.3467 13.67 11.0329 13.8004 10.6667 13.8H1.33333ZM8.78333 2.18334L9.73334 3.11667L5.33333 7.51667V8.46667H6.26667L10.6833 4.05L11.6333 4.98334L6.83333 9.8H4V6.96667L8.78333 2.18334ZM11.6333 4.98334L8.78333 2.18334L10.45 0.516669C10.7167 0.250002 11.0362 0.116669 11.4087 0.116669C11.7811 0.116669 12.0949 0.250002 12.35 0.516669L13.2833 1.46667C13.5389 1.72222 13.6667 2.03334 13.6667 2.4C13.6667 2.76667 13.5389 3.07778 13.2833 3.33334L11.6333 4.98334Z" fill="#AEB3BE"/>
</g>
<defs>
<clipPath id="clip0_14_1165">
<rect width="14" height="14" fill="white"/>
</clipPath>
</defs>
</svg>
