<svg width="22" height="22" viewBox="0 0 22 22" fill="none" xmlns="http://www.w3.org/2000/svg">
<path d="M9.88659 18.6603L9.88587 18.6596C7.30104 16.3157 5.19578 14.4033 3.73088 12.6111C2.27148 10.8256 1.5 9.22062 1.5 7.5C1.5 4.68674 3.69555 2.5 6.5 2.5C8.08885 2.5 9.62206 3.24223 10.6206 4.40564L11 4.84771L11.3794 4.40564C12.3779 3.24223 13.9112 2.5 15.5 2.5C18.3045 2.5 20.5 4.68674 20.5 7.5C20.5 9.22062 19.7285 10.8256 18.2691 12.6111C16.8042 14.4033 14.699 16.3157 12.1141 18.6596L12.1134 18.6603L11 19.6738L9.88659 18.6603Z" stroke="#662916"/>
</svg>
