<svg width="34" height="34" viewBox="0 0 34 34" fill="none" xmlns="http://www.w3.org/2000/svg">
<path d="M16.9982 7.5C15.1866 7.49976 13.4127 8.01737 11.8854 8.99181C10.3582 9.96626 9.14135 11.3569 8.37823 13H10.7502C10.9491 13 11.1399 13.079 11.2806 13.2197C11.4212 13.3603 11.5002 13.5511 11.5002 13.75C11.5002 13.9489 11.4212 14.1397 11.2806 14.2803C11.1399 14.421 10.9491 14.5 10.7502 14.5H7.00023C6.73501 14.5 6.48066 14.3946 6.29312 14.2071C6.10559 14.0196 6.00023 13.7652 6.00023 13.5V9.75C6.00023 9.55109 6.07925 9.36032 6.2199 9.21967C6.36055 9.07902 6.55132 9 6.75023 9C6.94914 9 7.13991 9.07902 7.28056 9.21967C7.42121 9.36032 7.50023 9.55109 7.50023 9.75V11.447C8.46972 9.78859 9.85673 8.41308 11.5231 7.45741C13.1896 6.50174 15.0772 5.99926 16.9982 6C23.0742 6 28.0002 10.925 28.0002 17C28.0002 23.075 23.0742 28 16.9982 28C11.0142 28 6.14623 23.223 6.00023 17.275C5.99532 17.0761 6.06963 16.8834 6.20682 16.7393C6.344 16.5951 6.53282 16.5114 6.73173 16.5065C6.93064 16.5016 7.12336 16.5759 7.26748 16.7131C7.4116 16.8503 7.49532 17.0391 7.50023 17.238C7.56232 19.7157 8.59028 22.0711 10.3648 23.8015C12.1392 25.5319 14.5197 26.5003 16.9982 26.5C22.2462 26.5 26.5002 22.247 26.5002 17C26.5002 11.753 22.2462 7.5 16.9982 7.5Z" fill="black"/>
<path d="M17.5 12.25C17.5 12.0511 17.421 11.8603 17.2803 11.7197C17.1397 11.579 16.9489 11.5 16.75 11.5C16.5511 11.5 16.3603 11.579 16.2197 11.7197C16.079 11.8603 16 12.0511 16 12.25V17.75C16 18.02 16.144 18.268 16.378 18.401L19.878 20.401C20.0503 20.4941 20.2522 20.5161 20.4405 20.4624C20.6288 20.4086 20.7886 20.2833 20.8858 20.1133C20.9829 19.9433 21.0097 19.742 20.9604 19.5524C20.9112 19.3629 20.7897 19.2002 20.622 19.099L17.5 17.315V12.25Z" fill="black"/>
</svg>
