<svg width="14" height="14" viewBox="0 0 14 14" fill="none" xmlns="http://www.w3.org/2000/svg">
<path d="M4.77307 12C4.65216 12 4.53881 11.9793 4.43301 11.938C4.32721 11.8966 4.22897 11.8271 4.13829 11.7293L0.23895 7.49663C0.0726986 7.31617 -0.0067996 7.08223 0.000454992 6.7948C0.00770958 6.50737 0.0947643 6.27376 0.26162 6.09395C0.427871 5.91349 0.639463 5.82326 0.896397 5.82326C1.15333 5.82326 1.36492 5.91349 1.53117 6.09395L4.77307 9.61296L12.4584 1.27069C12.6247 1.09023 12.8402 1 13.105 1C13.3698 1 13.585 1.09023 13.7506 1.27069C13.9169 1.45116 14 1.6851 14 1.97253C14 2.25995 13.9169 2.49357 13.7506 2.67338L5.40784 11.7293C5.31716 11.8277 5.21892 11.8976 5.11313 11.939C5.00733 11.9803 4.89398 12.0006 4.77307 12Z" fill="#00B100"/>
</svg>
