<svg width="45" height="45" viewBox="0 0 45 45" fill="none" xmlns="http://www.w3.org/2000/svg">
<rect width="45" height="45" rx="10" fill="#F9DEC1"/>
<path d="M21.189 31.2553L21.1883 31.2546C18.2523 28.5923 15.8555 26.4153 14.187 24.3739C12.5239 22.3392 11.6365 20.5004 11.6365 18.5227C11.6365 15.2881 14.162 12.7727 17.3865 12.7727C19.2126 12.7727 20.9735 13.6254 22.1207 14.962L22.5001 15.4041L22.8795 14.962C24.0267 13.6254 25.7876 12.7727 27.6137 12.7727C30.8382 12.7727 33.3637 15.2881 33.3637 18.5227C33.3637 20.5004 32.4764 22.3392 30.8133 24.3739C29.1447 26.4153 26.7479 28.5923 23.812 31.2546L23.8112 31.2553L22.5001 32.4489L21.189 31.2553Z" stroke="#662916"/>
</svg>
