<svg width="20" height="20" viewBox="0 0 20 20" fill="none" xmlns="http://www.w3.org/2000/svg">
<path d="M16.842 8.41635C16.8424 8.55117 16.8127 8.68437 16.7549 8.80618C16.6971 8.92799 16.6128 9.0353 16.5082 9.12024L11.0951 13.4789C10.9337 13.6116 10.7312 13.6842 10.5223 13.6842C10.3133 13.6842 10.1108 13.6116 9.94938 13.4789L4.53636 8.96682C4.35212 8.81365 4.23626 8.59354 4.21427 8.35492C4.19227 8.11629 4.26595 7.8787 4.41908 7.69441C4.57221 7.51013 4.79226 7.39423 5.03082 7.37223C5.26938 7.35023 5.5069 7.42392 5.69114 7.5771L10.5268 11.6109L15.3624 7.71246C15.4948 7.60211 15.6561 7.53202 15.8271 7.51047C15.9981 7.48892 16.1717 7.51682 16.3273 7.59087C16.483 7.66491 16.6142 7.78201 16.7054 7.9283C16.7966 8.07459 16.844 8.24396 16.842 8.41635Z" fill="#333333"/>
</svg>
