<svg width="35" height="35" viewBox="0 0 35 35" fill="none" xmlns="http://www.w3.org/2000/svg">
<path d="M16.3333 24H18.6667C19.3083 24 19.8333 23.475 19.8333 22.8333C19.8333 22.1917 19.3083 21.6667 18.6667 21.6667H16.3333C15.6917 21.6667 15.1667 22.1917 15.1667 22.8333C15.1667 23.475 15.6917 24 16.3333 24ZM7 11.1667C7 11.8083 7.525 12.3333 8.16667 12.3333H26.8333C27.475 12.3333 28 11.8083 28 11.1667C28 10.525 27.475 10 26.8333 10H8.16667C7.525 10 7 10.525 7 11.1667ZM11.6667 18.1667H23.3333C23.975 18.1667 24.5 17.6417 24.5 17C24.5 16.3583 23.975 15.8333 23.3333 15.8333H11.6667C11.025 15.8333 10.5 16.3583 10.5 17C10.5 17.6417 11.025 18.1667 11.6667 18.1667Z" fill="#333333"/>
</svg>
