<svg width="27" height="27" viewBox="0 0 27 27" fill="none" xmlns="http://www.w3.org/2000/svg">
<path d="M26.4727 12.9864C26.4336 12.9009 25.5097 10.8496 23.4689 8.80875C20.7383 6.08238 17.2969 4.64062 13.5 4.64062C9.70313 4.64062 6.26168 6.08238 3.53426 8.80875C1.49344 10.8496 0.569533 12.9009 0.527346 12.9864C0.455894 13.1484 0.418991 13.3235 0.418991 13.5005C0.418991 13.6776 0.455894 13.8527 0.527346 14.0147C0.566369 14.1012 1.49028 16.1515 3.53215 18.1923C6.26168 20.9187 9.70313 22.3594 13.5 22.3594C17.2969 22.3594 20.7383 20.9187 23.4647 18.1923C25.5066 16.1515 26.4305 14.1012 26.4695 14.0147C26.5414 13.8529 26.5789 13.6779 26.5794 13.5009C26.58 13.3238 26.5436 13.1486 26.4727 12.9864ZM21.6148 16.4668C19.3504 18.6964 16.6208 19.8281 13.5 19.8281C10.3792 19.8281 7.64965 18.6964 5.3884 16.4658C4.49861 15.5854 3.73322 14.5875 3.11344 13.5C3.7334 12.4129 4.49877 11.4155 5.3884 10.5353C7.6507 8.30355 10.3792 7.17188 13.5 7.17188C16.6208 7.17188 19.3493 8.30355 21.6116 10.5353C22.5013 11.4154 23.2667 12.4128 23.8866 13.5C23.2667 14.5875 22.5013 15.5853 21.6116 16.4658L21.6148 16.4668ZM13.5 8.85938C12.5822 8.85938 11.685 9.13154 10.9218 9.64146C10.1587 10.1514 9.56386 10.8761 9.21262 11.7241C8.86139 12.5721 8.76949 13.5051 8.94855 14.4053C9.12761 15.3055 9.56958 16.1324 10.2186 16.7814C10.8676 17.4304 11.6945 17.8724 12.5947 18.0515C13.4949 18.2305 14.4279 18.1386 15.2759 17.7874C16.1239 17.4361 16.8486 16.8413 17.3585 16.0782C17.8685 15.315 18.1406 14.4178 18.1406 13.5C18.1392 12.2697 17.6499 11.0901 16.7799 10.2201C15.9099 9.35014 14.7303 8.86077 13.5 8.85938ZM13.5 15.6094C13.0828 15.6094 12.675 15.4857 12.3281 15.2539C11.9812 15.0221 11.7108 14.6927 11.5512 14.3072C11.3915 13.9218 11.3498 13.4977 11.4312 13.0885C11.5125 12.6793 11.7134 12.3034 12.0084 12.0084C12.3034 11.7134 12.6793 11.5125 13.0885 11.4312C13.4977 11.3498 13.9218 11.3915 14.3072 11.5512C14.6927 11.7108 15.0221 11.9812 15.2539 12.3281C15.4857 12.675 15.6094 13.0828 15.6094 13.5C15.6094 14.0594 15.3871 14.596 14.9916 14.9916C14.596 15.3871 14.0594 15.6094 13.5 15.6094Z" fill="black"/>
</svg>
