<svg width="21" height="21" viewBox="0 0 21 21" fill="none" xmlns="http://www.w3.org/2000/svg">
<path d="M15.75 11.3733H11.375V15.7483C11.375 15.9804 11.2828 16.2029 11.1187 16.367C10.9546 16.5311 10.7321 16.6233 10.5 16.6233C10.2679 16.6233 10.0454 16.5311 9.88128 16.367C9.71719 16.2029 9.625 15.9804 9.625 15.7483V11.3733H5.25C5.01794 11.3733 4.79538 11.2811 4.63128 11.117C4.46719 10.9529 4.375 10.7304 4.375 10.4983C4.375 10.2662 4.46719 10.0437 4.63128 9.87957C4.79538 9.71548 5.01794 9.62329 5.25 9.62329H9.625V5.24829C9.625 5.01623 9.71719 4.79367 9.88128 4.62957C10.0454 4.46548 10.2679 4.37329 10.5 4.37329C10.7321 4.37329 10.9546 4.46548 11.1187 4.62957C11.2828 4.79367 11.375 5.01623 11.375 5.24829V9.62329H15.75C15.9821 9.62329 16.2046 9.71548 16.3687 9.87957C16.5328 10.0437 16.625 10.2662 16.625 10.4983C16.625 10.7304 16.5328 10.9529 16.3687 11.117C16.2046 11.2811 15.9821 11.3733 15.75 11.3733Z" fill="black"/>
</svg>
