<svg width="22" height="22" viewBox="0 0 22 22" fill="none" xmlns="http://www.w3.org/2000/svg">
<path d="M21 11.0009C21 9.33719 20.5851 7.69976 19.7926 6.23693C19.0002 4.7741 17.8553 3.5321 16.4618 2.62342C15.0683 1.71474 13.47 1.1681 11.8119 1.03302C10.1538 0.89794 8.48821 1.17869 6.96597 1.84983C5.44374 2.52097 4.11298 3.5613 3.09425 4.87657C2.07552 6.19185 1.401 7.74052 1.1318 9.38229C0.862595 11.0241 1.00721 12.7071 1.55255 14.2788C2.09789 15.8506 3.02672 17.2615 4.2549 18.3837L4.37255 18.4817C6.19907 20.104 8.55712 21 11 21C13.4429 21 15.8009 20.104 17.6274 18.4817L17.7451 18.3837C18.7716 17.4474 19.5913 16.3071 20.1518 15.0359C20.7123 13.7646 21.0012 12.3903 21 11.0009ZM2.17647 11.0009C2.1745 9.56033 2.52523 8.1412 3.19802 6.86743C3.87081 5.59365 4.84521 4.50398 6.03612 3.69356C7.22702 2.88315 8.59822 2.37664 10.03 2.21827C11.4617 2.0599 12.9104 2.25448 14.2497 2.78503C15.5889 3.31558 16.7779 4.16596 17.7127 5.26191C18.6476 6.35785 19.3 7.66602 19.6129 9.07219C19.9257 10.4783 19.8896 11.9397 19.5076 13.3287C19.1257 14.7177 18.4095 15.992 17.4216 17.0404C16.495 15.6071 15.114 14.5264 13.5 13.9716C14.3057 13.435 14.9174 12.6532 15.2445 11.7421C15.5716 10.8309 15.5969 9.83861 15.3166 8.91195C15.0362 7.9853 14.4652 7.17346 13.6878 6.59646C12.9105 6.01945 11.9681 5.70792 11 5.70792C10.0319 5.70792 9.08954 6.01945 8.31218 6.59646C7.53483 7.17346 6.96376 7.9853 6.68343 8.91195C6.40309 9.83861 6.42836 10.8309 6.7555 11.7421C7.08264 12.6532 7.69428 13.435 8.5 13.9716C6.88597 14.5264 5.50496 15.6071 4.57843 17.0404C3.03426 15.409 2.17458 13.2473 2.17647 11.0009ZM7.66667 10.2165C7.66667 9.55722 7.86216 8.91271 8.22843 8.36452C8.59471 7.81632 9.1153 7.38906 9.72439 7.13675C10.3335 6.88444 11.0037 6.81843 11.6503 6.94705C12.2969 7.07568 12.8908 7.39317 13.357 7.85937C13.8232 8.32557 14.1407 8.91955 14.2693 9.56619C14.3979 10.2128 14.3319 10.8831 14.0796 11.4922C13.8273 12.1013 13.4001 12.622 12.8519 12.9883C12.3037 13.3545 11.6593 13.5501 11 13.5501C10.1167 13.5475 9.2704 13.1954 8.64583 12.5708C8.02127 11.9462 7.66925 11.0998 7.66667 10.2165ZM5.45098 17.864C6.02766 16.908 6.84155 16.1171 7.81376 15.5681C8.78597 15.0191 9.88352 14.7307 11 14.7307C12.1165 14.7307 13.214 15.0191 14.1862 15.5681C15.1584 16.1171 15.9723 16.908 16.549 17.864C14.9778 19.1327 13.0194 19.8246 11 19.8246C8.98061 19.8246 7.02219 19.1327 5.45098 17.864Z" fill="#662916"/>
</svg>
