<svg width="20" height="20" viewBox="0 0 18 18" fill="none" xmlns="http://www.w3.org/2000/svg">
<path d="M3.31233 7.3825L2.46463 14.637L3.54768 14.7521L4.39538 7.4965L3.31233 7.3825ZM4.08921 16.3636H14.7302V15.3273H4.08921V16.3636ZM16.3547 14.637L15.507 7.3825L14.424 7.4965L15.2717 14.7521L16.3547 14.637ZM15.507 7.3825C15.4625 7.00231 15.2722 6.65108 14.9725 6.39601C14.6727 6.14094 14.2835 5.99994 13.8814 5.99999L13.8824 7.03636C14.0166 7.03635 14.146 7.0834 14.2459 7.16849C14.3458 7.25359 14.4092 7.37075 14.424 7.49754L15.507 7.3825ZM14.7302 16.3636C14.96 16.3635 15.1872 16.3173 15.3969 16.228C15.6067 16.1387 15.7943 16.0083 15.9475 15.8454C16.1007 15.6825 16.2161 15.4906 16.2861 15.2824C16.3561 15.0742 16.3802 14.8543 16.3547 14.637L15.2717 14.7521C15.2803 14.8246 15.2727 14.897 15.2494 14.9665C15.2261 15.036 15.1876 15.1 15.1365 15.1544C15.0854 15.2088 15.0227 15.2523 14.9527 15.2821C14.8827 15.3119 14.8069 15.3273 14.7302 15.3273V16.3636ZM2.46463 14.637C2.43919 14.8544 2.46224 15.0744 2.53228 15.2827C2.60232 15.491 2.71777 15.6828 2.8711 15.8458C3.02442 16.0087 3.21217 16.1391 3.42207 16.2283C3.63197 16.3176 3.8593 16.3637 4.08921 16.3636V15.3273C4.01261 15.3273 3.93686 15.3119 3.86692 15.2822C3.79699 15.2525 3.73442 15.209 3.68332 15.1548C3.63222 15.1005 3.59372 15.0366 3.57035 14.9672C3.54698 14.8978 3.53926 14.8245 3.54768 14.7521L2.46463 14.6381V14.637ZM6.6857 4.96363V4.44545H5.59611V4.96363H6.6857ZM12.1337 4.44545V4.96363H13.2232V4.44545H12.1337ZM9.40968 1.85454C10.1321 1.85454 10.825 2.12751 11.3358 2.6134C11.8467 3.09929 12.1337 3.7583 12.1337 4.44545H13.2232C13.2232 3.48344 12.8215 2.56083 12.1063 1.88058C11.3911 1.20033 10.4211 0.818176 9.40968 0.818176V1.85454ZM6.6857 4.44545C6.6857 3.7583 6.97269 3.09929 7.48354 2.6134C7.99438 2.12751 8.68724 1.85454 9.40968 1.85454V0.818176C8.39826 0.818176 7.42826 1.20033 6.71308 1.88058C5.9979 2.56083 5.59611 3.48344 5.59611 4.44545H6.6857Z" fill="white"/>
<path d="M4.39538 7.4965L3.54768 14.7521C3.53926 14.8245 3.54698 14.8978 3.57035 14.9672C3.59372 15.0366 3.63222 15.1005 3.68332 15.1548C3.73442 15.209 3.79699 15.2525 3.86692 15.2822C3.93686 15.3119 4.01261 15.3273 4.08921 15.3273H14.7302C14.8069 15.3273 14.8827 15.3119 14.9527 15.2821C15.0227 15.2523 15.0854 15.2088 15.1365 15.1544C15.1876 15.1 15.2261 15.036 15.2494 14.9665C15.2727 14.897 15.2803 14.8246 15.2717 14.7521L14.424 7.49754C14.4092 7.37075 14.3458 7.25359 14.2459 7.16849C14.146 7.0834 14.0166 7.03635 13.8824 7.03636L13.8814 5.99999H4.938C4.536 6.00019 4.14709 6.14131 3.84758 6.39635C3.54808 6.6514 3.35682 7.00249 3.31233 7.3825L4.39538 7.4965Z" fill="white"/>
</svg>
