<svg width="19" height="19" viewBox="0 0 19 19" fill="none" xmlns="http://www.w3.org/2000/svg">
<path d="M7.91658 14.25C9.32177 14.2497 10.6865 13.7793 11.7934 12.9137L15.2735 16.3938L16.393 15.2744L12.9128 11.7943C13.7789 10.6872 14.2496 9.32222 14.2499 7.91667C14.2499 4.42463 11.4086 1.58333 7.91658 1.58333C4.42454 1.58333 1.58325 4.42463 1.58325 7.91667C1.58325 11.4087 4.42454 14.25 7.91658 14.25ZM7.91658 3.16667C10.5362 3.16667 12.6666 5.29704 12.6666 7.91667C12.6666 10.5363 10.5362 12.6667 7.91658 12.6667C5.29696 12.6667 3.16659 10.5363 3.16659 7.91667C3.16659 5.29704 5.29696 3.16667 7.91658 3.16667Z" fill="#333333"/>
</svg>
